<svg width="24" height="24" viewBox="0 0 24 24" fill="none" xmlns="http://www.w3.org/2000/svg">
<path d="M7 8.25C7.72935 8.25 8.42882 7.96027 8.94454 7.44454C9.46027 6.92882 9.75 6.22935 9.75 5.5C9.75 4.77065 9.46027 4.07118 8.94454 3.55546C8.42882 3.03973 7.72935 2.75 7 2.75C6.27065 2.75 5.57118 3.03973 5.05546 3.55546C4.53973 4.07118 4.25 4.77065 4.25 5.5C4.25 6.22935 4.53973 6.92882 5.05546 7.44454C5.57118 7.96027 6.27065 8.25 7 8.25ZM7 8.25V15.75M7 8.25C7 11.15 9.35 13.5 12.25 13.5H14.25M7 15.75C6.27065 15.75 5.57118 16.0397 5.05546 16.5555C4.53973 17.0712 4.25 17.7707 4.25 18.5C4.25 19.2293 4.53973 19.9288 5.05546 20.4445C5.57118 20.9603 6.27065 21.25 7 21.25C7.72935 21.25 8.42882 20.9603 8.94454 20.4445C9.46027 19.9288 9.75 19.2293 9.75 18.5C9.75 17.7707 9.46027 17.0712 8.94454 16.5555C8.42882 16.0397 7.72935 15.75 7 15.75ZM14.25 13.5C14.25 14.2293 14.5397 14.9288 15.0555 15.4445C15.5712 15.9603 16.2707 16.25 17 16.25C17.7293 16.25 18.4288 15.9603 18.9445 15.4445C19.4603 14.9288 19.75 14.2293 19.75 13.5C19.75 12.7707 19.4603 12.0712 18.9445 11.5555C18.4288 11.0397 17.7293 10.75 17 10.75C16.2707 10.75 15.5712 11.0397 15.0555 11.5555C14.5397 12.0712 14.25 12.7707 14.25 13.5Z" stroke="black" stroke-width="1.5" stroke-linecap="round" stroke-linejoin="round"/>
</svg>
