<svg width="24" height="24" viewBox="0 0 24 24" fill="none" xmlns="http://www.w3.org/2000/svg">
<path d="M4 12V16.18C4 17.874 4 18.72 4.268 19.397C4.698 20.485 5.61 21.342 6.765 21.747C7.483 22 8.383 22 10.182 22C13.33 22 14.904 22 16.162 21.558C18.182 20.848 19.777 19.348 20.532 17.445C21 16.261 21 14.779 21 11.815V9.27C21 6.2 21 4.665 20.152 3.598C19.9071 3.29003 19.6192 3.01892 19.297 2.793C18.385 2.15 17.15 2.024 15 2" stroke="black" stroke-width="1.5" stroke-linecap="round" stroke-linejoin="round"/>
<path d="M20.9999 12.0005C20.9999 12.8844 20.6488 13.7322 20.0237 14.3573C19.3987 14.9823 18.5509 15.3335 17.6669 15.3335C17.0009 15.3335 16.2159 15.2175 15.5689 15.3905C15.2863 15.4665 15.0287 15.6154 14.8218 15.8223C14.6148 16.0292 14.4659 16.2869 14.3899 16.5695C14.2169 17.2165 14.3329 18.0015 14.3329 18.6675C14.3329 19.1052 14.2467 19.5386 14.0792 19.943C13.9117 20.3473 13.6662 20.7148 13.3567 21.0243C13.0472 21.3338 12.6798 21.5793 12.2754 21.7468C11.871 21.9143 11.4376 22.0005 10.9999 22.0005M4.14194 2.44247C5.34894 1.71047 6.40194 2.00547 7.03494 2.47447C7.29394 2.66747 7.42394 2.76347 7.49994 2.76347C7.57594 2.76347 7.70594 2.66747 7.96494 2.47447C8.59794 2.00547 9.65094 1.71047 10.8579 2.44247C12.4419 3.40147 12.7999 6.56647 9.14794 9.23747C8.44994 9.74547 8.10294 10.0005 7.49994 10.0005C6.89694 10.0005 6.54894 9.74547 5.85294 9.23747C2.19994 6.56747 2.55794 3.40047 4.14194 2.44247Z" stroke="black" stroke-width="1.5" stroke-linecap="round" stroke-linejoin="round"/>
</svg>
