<svg width="18" height="18" viewBox="0 0 18 18" fill="none" xmlns="http://www.w3.org/2000/svg">
<path fill-rule="evenodd" clip-rule="evenodd" d="M6.94788 0.451997L2.12388 2.656C1.99752 2.71246 1.88996 2.80391 1.8139 2.91955C1.73785 3.03518 1.69649 3.17017 1.6947 3.30856C1.69291 3.44696 1.73078 3.58297 1.80382 3.70053C1.87686 3.81809 1.98202 3.91229 2.10688 3.972L6.85188 6.254C7.53633 6.58275 8.28622 6.75261 9.04553 6.75088C9.80484 6.74915 10.5539 6.57587 11.2369 6.244L15.8979 3.966C16.0224 3.90676 16.1273 3.81306 16.2002 3.696C16.2731 3.57894 16.3109 3.44344 16.3091 3.30555C16.3073 3.16767 16.266 3.03319 16.1901 2.91806C16.1142 2.80293 16.0069 2.71198 15.8809 2.656L11.1479 0.463997C10.4898 0.160108 9.77401 0.00172526 9.04919 -0.000345637C8.32438 -0.00241653 7.60764 0.151873 6.94788 0.451997ZM11.9459 4.911L11.4019 4.653C10.6869 4.966 9.76788 5.051 9.16788 5.063L8.94388 4.686L9.08888 4.681C9.68588 4.664 10.3399 4.644 10.8919 4.411L8.84588 3.441C8.25488 3.637 7.65288 3.799 7.02588 3.764C6.59388 3.73 5.96888 3.573 5.73288 3.162C5.59288 2.909 5.71088 2.673 5.90188 2.476C6.00655 2.372 6.11755 2.281 6.23488 2.203L5.62588 1.914L6.07588 1.689L6.67188 1.972C7.28488 1.721 7.99388 1.689 8.64488 1.689L8.68488 1.987H8.62388C8.26388 1.987 7.57588 1.985 7.09988 2.177L8.90688 3.037C9.31891 2.91784 9.74158 2.83914 10.1689 2.802C10.7589 2.757 11.3609 2.802 11.8159 3.005C12.1989 3.173 12.5189 3.555 12.2659 3.977C12.1486 4.15369 11.9973 4.30529 11.8209 4.423L12.3729 4.686L11.9459 4.911ZM0.00488281 12.556V5.94C0.00488281 5.136 0.847883 4.602 1.58988 4.939L6.47588 7.177C7.05977 7.44281 7.55505 7.87068 7.90286 8.40976C8.25066 8.94884 8.43636 9.57646 8.43788 10.218V16.875C8.43788 17.685 7.58788 18.219 6.84688 17.875L1.95588 15.593C1.37482 15.3259 0.882344 14.8981 0.536624 14.3602C0.190904 13.8222 0.0063908 13.1965 0.00488281 12.557M5.86288 14.991C5.63788 15.132 5.41288 15.183 5.08688 15.183C4.11388 15.183 3.07388 14.306 2.56788 13.08C2.37204 12.5859 2.25462 12.0643 2.21988 11.534L1.69088 11.309L1.96088 10.775L2.19688 10.876C2.20288 10.606 2.22488 10.331 2.25288 10.061L1.69088 9.819L1.96088 9.29L2.34888 9.46L2.35988 9.38C2.54588 8.447 2.94988 7.874 3.82188 7.874C4.51388 7.874 5.26188 8.38 5.83988 9.144C5.76971 9.40027 5.6658 9.64609 5.53088 9.875C5.18288 9.145 4.65388 8.638 4.04688 8.638C3.39488 8.638 3.07388 9.038 2.91688 9.701L5.23888 10.696L4.96888 11.23L2.80988 10.302C2.77588 10.567 2.75388 10.842 2.75388 11.118L4.74988 11.978L4.47988 12.506L2.79888 11.781C2.84388 12.118 2.92188 12.456 3.05188 12.759C3.44488 13.732 4.23188 14.44 5.00188 14.44C5.23288 14.44 5.41288 14.395 5.54788 14.317C5.63188 14.457 5.74488 14.687 5.86288 14.991ZM16.4099 4.956C17.1519 4.618 17.9949 5.152 17.9949 5.962V12.579C17.9935 13.2184 17.8091 13.844 17.4636 14.382C17.118 14.9199 16.6258 15.3478 16.0449 15.615L11.1529 17.892C10.9836 17.9722 10.7968 18.0084 10.6098 17.9973C10.4228 17.9862 10.2416 17.9282 10.083 17.8285C9.92445 17.7288 9.79355 17.5907 9.70245 17.427C9.61136 17.2633 9.56301 17.0793 9.56188 16.892V10.235C9.56436 9.59431 9.75051 8.96777 10.0983 8.42966C10.446 7.89155 10.9408 7.46445 11.5239 7.199L16.4099 4.956ZM14.8699 7.9L15.5099 7.681L14.0599 11.718V12.072L15.1839 11.51V12.072L14.0599 12.634V13.348L15.1839 12.792V13.354L14.0599 13.916V14.878L13.4969 15.181V14.191L12.3729 14.754V14.192L13.4969 13.63V12.91L12.3729 13.472V12.91L13.4969 12.353V12.072L11.8609 9.368L12.4799 9.008L13.7279 11.145L14.8699 7.9Z" fill="black"/>
</svg>
