<svg width="537" height="518" viewBox="0 0 537 518" fill="none" xmlns="http://www.w3.org/2000/svg">
<path d="M464.209 187.805C472.186 187.833 480.079 189.44 487.433 192.532C494.786 195.625 501.455 200.142 507.055 205.824C512.654 211.506 517.074 218.24 520.059 225.638C523.04 233.028 524.531 240.935 524.445 248.904H524.446V454.468C524.427 470.666 517.984 486.195 506.53 497.648C495.076 509.102 479.547 515.545 463.349 515.564H257.783C241.585 515.545 226.056 509.102 214.603 497.648C203.149 486.195 196.706 470.666 196.687 454.468V248.901C196.706 232.703 203.149 217.174 214.603 205.721C226.056 194.267 241.585 187.824 257.783 187.805H464.209ZM256.114 215.115C247.675 215.33 239.626 218.776 233.642 224.761C227.464 230.938 223.991 239.315 223.985 248.051V455.319L223.996 456.137C224.211 464.576 227.657 472.625 233.642 478.609C239.819 484.787 248.196 488.259 256.932 488.265H464.2C472.936 488.259 481.313 484.787 487.49 478.609C493.667 472.432 497.14 464.056 497.146 455.32V248.051L497.136 247.232C496.921 238.793 493.474 230.745 487.49 224.761C481.506 218.777 473.458 215.33 465.019 215.115L464.2 215.104H256.932L256.114 215.115ZM362.424 240.127L465.112 437.854L466.077 439.712L464.219 440.677L443.741 451.308L441.884 452.272L440.919 450.415L414.718 400.003H306.414L280.213 450.415L279.248 452.272L277.391 451.308L256.913 440.677L255.055 439.712L256.021 437.854L358.708 240.127L360.566 236.55L362.424 240.127ZM320.608 372.703H400.523L360.565 295.787L320.608 372.703ZM179.102 515.842H129.44C110.502 515.823 92.3453 508.292 78.9541 494.9C65.5628 481.509 58.0316 463.351 58.0127 444.413V396.489L23.8203 430.661L22.3398 432.141L3.03906 412.84L4.51953 411.359L70.3203 345.582L71.8008 344.102L73.2812 345.582L139.082 411.359L140.562 412.84L121.261 432.142L119.78 430.661L85.3115 396.191V444.362L85.3271 445.457C85.6239 456.76 90.2434 467.535 98.2578 475.55C106.531 483.823 117.747 488.479 129.446 488.496H129.445L177.01 488.542L179.102 488.544V515.842ZM478.222 122.279L512.69 87.8105L514.168 86.332L515.648 87.8086L532.013 104.125L533.497 105.605L464.71 174.393L463.229 172.912L397.429 107.088L395.949 105.607L415.25 86.3066L416.73 87.7871L450.922 121.999V74.3398L450.906 73.2451C450.61 61.9426 445.99 51.1669 437.976 43.1523C429.961 35.1379 419.185 30.5175 407.883 30.2207L406.787 30.2061H358.473V2.90625H406.793C425.731 2.9252 443.888 10.4573 457.279 23.8486C470.671 37.24 478.203 55.3968 478.222 74.335V122.279ZM339.547 168.88H312.248V62.7832L312.236 61.9746C312.018 53.6315 308.609 45.6768 302.693 39.7607C296.777 33.8445 288.822 30.4345 280.479 30.2168L279.67 30.2061H71.665L70.8564 30.2168C62.513 30.4345 54.5578 33.8445 48.6416 39.7607C42.5348 45.8676 39.0985 54.1468 39.0869 62.7832V270.789L39.0986 271.598C39.3165 279.941 42.7255 287.896 48.6416 293.812C54.7486 299.919 63.0285 303.355 71.665 303.366H177.761V330.666H71.6602C55.785 330.653 40.5634 324.342 29.3379 313.116C18.1123 301.891 11.8008 286.668 11.7881 270.793V62.7793C11.8008 46.9041 18.1125 31.6826 29.3379 20.457C40.5634 9.23153 55.7849 2.91901 71.6602 2.90625H279.675C295.55 2.91898 310.772 9.23151 321.997 20.457C333.223 31.6826 339.534 46.904 339.547 62.7793V168.88Z" fill="#333333" stroke="#333333" stroke-width="4.18723"/>
<path d="M162.028 109.827V139.985C164.566 135.569 168.085 132.082 172.584 129.526C177.199 126.853 182.621 125.516 188.852 125.516C196.005 125.516 202.235 127.259 207.542 130.746C212.964 134.232 217.118 138.997 220.002 145.041C222.886 151.084 224.328 157.882 224.328 165.436C224.328 173.688 222.771 180.835 219.656 186.878C216.656 192.805 212.445 197.338 207.023 200.476C201.6 203.614 195.428 205.182 188.505 205.182C184.467 205.182 180.66 204.776 177.084 203.962V186.181C178.468 186.646 180.256 186.878 182.448 186.878C188.102 186.878 192.716 185.019 196.293 181.3C199.87 177.581 201.658 172.468 201.658 165.959C201.658 159.8 199.812 154.745 196.12 150.793C192.428 146.842 187.698 144.866 181.929 144.866C175.468 144.866 170.507 147.074 167.046 151.491C163.7 155.907 162.028 161.253 162.028 167.528V220H140.568V191.759C137.915 196.408 134.165 200.069 129.32 202.742C124.474 205.299 118.705 206.577 112.014 206.577C104.745 206.577 98.3999 204.892 92.9774 201.522C87.5549 198.151 83.3438 193.386 80.3441 187.227C77.3445 181.068 75.8446 173.978 75.8446 165.959C75.8446 157.941 77.3445 150.909 80.3441 144.866C83.4592 138.707 87.7856 133.942 93.3235 130.572C98.9767 127.201 105.495 125.516 112.879 125.516C119.34 125.516 124.878 126.795 129.493 129.351C134.108 131.792 137.799 135.22 140.568 139.636V109.827H62V91H238V109.827H162.028ZM119.455 187.75C123.955 187.75 127.762 186.704 130.877 184.612C134.108 182.52 136.53 179.847 138.146 176.593C139.761 173.223 140.568 169.736 140.568 166.134C140.568 160.323 138.722 155.326 135.03 151.142C131.454 146.842 126.32 144.692 119.628 144.692C113.629 144.692 108.61 146.668 104.572 150.619C100.534 154.57 98.5152 159.742 98.5152 166.134C98.5152 172.642 100.477 177.872 104.399 181.823C108.322 185.774 113.341 187.75 119.455 187.75Z" fill="#333333"/>
</svg>
