<svg xmlns="http://www.w3.org/2000/svg" viewBox="0 0 383.68 383.52"><g id="Layer_2" data-name="Layer 2"><g id="Layer_1-2" data-name="Layer 1"><path d="M300.91,383.52H278.46c-.6-.15-1.2-.36-1.81-.46q-51.31-8.58-73.12-55.81c-1.67-3.63-3.49-4.92-7.48-4.91-54,.13-108,.07-162,.12a34.12,34.12,0,0,1-15.18-3.37C8.68,314.16,3,305.78,0,295.19V56.41c.34-1.07.7-2.13,1-3.2C6.5,34.27,22,22.5,41.67,22.44c5.74,0,11.48-.09,17.21,0,2.76.05,3.87-1.07,3.73-3.79-.12-2.23,0-4.48,0-6.73C62.71,4.84,67.46,0,74.19,0S85.51,4.94,85.61,12.13c0,2.36.06,4.74,0,7.1,0,2.18.91,3.21,3.13,3.21q16.85,0,33.67,0c2.27,0,3.08-1.16,3-3.28,0-2.75-.08-5.49,0-8.23a11.49,11.49,0,0,1,23,0c.12,2.74.08,5.48,0,8.23,0,2.12.77,3.29,3,3.28q16.85,0,33.67,0c2.22,0,3.17-1,3.13-3.21,0-2.74-.07-5.49,0-8.23a11.49,11.49,0,0,1,23-.17c.13,2.74.1,5.49,0,8.23-.06,2.36.95,3.4,3.34,3.39q16.65-.07,33.3,0c2.47,0,3.27-1.22,3.22-3.5-.06-2.74-.1-5.49,0-8.22a11.5,11.5,0,0,1,22.94,0c.12,2.23,0,4.48.05,6.73,0,4.88.08,4.88,5.11,5,7.6.14,15.28-.83,22.79.44,21,3.56,34.95,20.33,35,41.7q0,69.41-.06,138.8c0,3.73,1,6,4.26,8.2,24.93,16.89,39.3,40.45,42,70.43,3.51,39.17-17.74,75.58-53.14,92.75C320.87,379.28,311,381.76,300.91,383.52ZM168.54,120.33q-70.53,0-141-.06c-3.52,0-4.82.94-4.81,4.64q.15,80.64.08,161.26c0,8.58,4.41,13.2,12.75,13.2q78,.06,156,.08c3.55,0,4.52-1.31,4.38-4.65a101.47,101.47,0,0,1,.83-19.39c8-52.91,60.16-88.73,112.72-77.34,4.59,1,4.63,1,4.63-3.7q0-34.23,0-68.47c0-5.56,0-5.57-5.62-5.57ZM289.67,360.75c39.55-.75,70.69-31.28,70.64-70.88-.05-39.42-31-70.43-70.43-70.55s-70.76,30.76-70.83,70.53C219,329.37,250.06,360,289.67,360.75ZM168.4,97.29H276.17c11.35,0,22.7,0,34.05,0,2.59,0,3.93-.74,3.9-3.61-.09-9.72.15-19.46-.09-29.18-.27-10.66-6.93-17.94-17.53-18.85-6.44-.56-13-.16-19.44-.18-2.1,0-2.81,1.2-2.8,3.13,0,2.87.09,5.74-.06,8.61a11.49,11.49,0,0,1-22.93-.13c-.14-2.74-.11-5.49,0-8.24.06-2.34-.91-3.42-3.32-3.41q-16.65.07-33.3,0c-2.46,0-3.3,1.2-3.24,3.49.06,2.74.1,5.49,0,8.23a11.49,11.49,0,0,1-22.94,0c-.14-2.73-.1-5.48,0-8.23.06-2.3-.8-3.48-3.25-3.47q-16.66.07-33.31,0c-2.42,0-3.36,1.1-3.3,3.43.07,2.61.07,5.24,0,7.85a11.49,11.49,0,0,1-23,.11c-.11-2.74-.08-5.49,0-8.23,0-2.21-1-3.15-3.18-3.15q-16.84,0-33.68,0c-2,0-3,1-3,3,0,2.87.08,5.75,0,8.61a11.49,11.49,0,0,1-23-.15c-.1-2.49-.14-5,0-7.48.17-2.88-1-4.08-3.9-4-5.11.14-10.23,0-15.34,0-12.88.08-20.53,7.67-20.61,20.5-.05,8.35,0,16.71,0,25.07,0,6.24,0,6.24,6.07,6.24Z"/><path d="M134.9,171.08c-3,0-6,.16-9,0-7.11-.45-11.81-5.37-11.68-12,.12-6.41,4.94-11.17,11.91-11.39,6-.2,12-.2,17.93,0,7,.24,11.76,5,11.86,11.44.11,6.65-4.59,11.54-11.72,12C141.14,171.24,138,171.08,134.9,171.08Z"/><path d="M201.87,147.6c3,0,6-.13,9,0,6.95.37,11.69,5.11,11.75,11.56s-4.53,11.47-11.46,11.81c-6.21.31-12.46.3-18.67,0-7.08-.32-11.75-5.43-11.57-12.09.17-6.39,5-11,12-11.31C195.88,147.48,198.88,147.59,201.87,147.6Z"/><path d="M268.5,147.6c3,0,6-.13,9,0,7,.37,11.69,5.12,11.74,11.57s-4.54,11.47-11.47,11.8c-6.21.31-12.46.3-18.67,0-7.08-.33-11.74-5.44-11.56-12.1.18-6.39,5-11,12-11.3,3-.12,6,0,9,0Z"/><path d="M68.61,248.65c3,0,6-.13,9,0,7,.37,11.71,5.1,11.77,11.54s-4.51,11.49-11.44,11.83c-6.21.31-12.46.3-18.67,0-7.09-.33-11.76-5.42-11.59-12.08.16-6.4,5-11,12-11.32C62.63,248.54,65.62,248.64,68.61,248.65Z"/><path d="M135.1,248.65c3,0,6-.12,9,0,7,.33,11.78,5,11.9,11.42.13,6.66-4.56,11.68-11.68,12-6.09.26-12.21.26-18.3,0-7.13-.3-11.83-5.31-11.72-12,.11-6.42,4.91-11.11,11.87-11.45C129.12,248.53,132.11,248.65,135.1,248.65Z"/><path d="M68.22,221.35c-3.23,0-6.47.12-9.7,0a11.48,11.48,0,0,1,0-22.92c6.71-.18,13.44-.19,20.15,0a11.12,11.12,0,0,1,10.69,11.24,11.24,11.24,0,0,1-10.67,11.66C75.19,221.49,71.7,221.35,68.22,221.35Z"/><path d="M135,221.36c-3.23,0-6.47.1-9.7,0a11.48,11.48,0,0,1,0-23q9.69-.21,19.4,0a11.48,11.48,0,0,1,0,23C141.47,221.44,138.23,221.36,135,221.36Z"/><path d="M201.48,221.35c-3.24,0-6.48.11-9.7,0a11.48,11.48,0,0,1-.06-22.92c6.71-.18,13.44-.19,20.15,0a11.12,11.12,0,0,1,10.71,11.22,11.23,11.23,0,0,1-10.66,11.68C208.45,221.49,205,221.35,201.48,221.35Z"/><path d="M308.19,301.47c-6.1,0-12.21.06-18.31,0-7-.1-11.65-4.76-11.69-11.82q-.1-18.51,0-37c.05-6.79,5-11.61,11.53-11.59s11.36,4.85,11.44,11.69c.09,7.11.18,14.21,0,21.31-.1,3.51,1.23,4.56,4.6,4.46,7-.19,13.95-.1,20.92,0s12,4.86,11.95,11.57-4.93,11.32-12.1,11.44H308.19Z"/></g></g></svg>