<svg xmlns="http://www.w3.org/2000/svg" viewBox="0 0 203 203"><g id="Layer_2" data-name="Layer 2"><g id="Layer_1-2" data-name="Layer 1"><path d="M123.51,180.16c-2.54,1.91-5.24,3.93-7.53,5.92h19.37a8.46,8.46,0,0,1,0,16.92H101.52a8.46,8.46,0,0,1-8.46-8.46c0-12.69,10.78-20.77,20.3-27.91,6.34-4.76,13.53-10.15,13.53-14.38a8.46,8.46,0,1,0-16.91,0,8.46,8.46,0,0,1-16.92,0,25.37,25.37,0,1,1,50.74,0C143.8,164.94,133,173,123.51,180.16Zm71-53.29a8.45,8.45,0,0,0-8.45,8.46v25.38h-8.46a8.46,8.46,0,0,1-8.46-8.46V135.33a8.46,8.46,0,1,0-16.91,0v16.92a25.37,25.37,0,0,0,25.37,25.37h8.46v16.92a8.46,8.46,0,1,0,16.91,0V135.33A8.46,8.46,0,0,0,194.54,126.87ZM110,101.5V59.2a8.46,8.46,0,0,0-16.92,0V93H67.69a8.46,8.46,0,0,0,0,16.91h33.83A8.45,8.45,0,0,0,110,101.5Zm84.56-84.59a8.45,8.45,0,0,0-8.45,8.46V45.45A101.49,101.49,0,1,0,64.61,196.08a8.81,8.81,0,0,0,3.08.58,8.46,8.46,0,0,0,3.08-16.35A84.58,84.58,0,1,1,174.55,59.2H152.26a8.46,8.46,0,1,0,0,16.92h25.37A25.37,25.37,0,0,0,203,50.74V25.37A8.46,8.46,0,0,0,194.54,16.91Z"/></g></g></svg>